<svg id="Слой_1" data-name="Слой 1" xmlns="http://www.w3.org/2000/svg" viewBox="0 0 100 100"><defs><style>.cls-1,.cls-3{fill:#f29025;}.cls-2{fill:#eadf00;}.cls-3{stroke:#cd741f;}.cls-3,.cls-5{stroke-miterlimit:10;}.cls-4{fill:#6fa32e;}.cls-5{fill:none;stroke:#cd7420;stroke-width:0.75px;}</style></defs><title>Av2</title><ellipse class="cls-1" cx="48.46" cy="50" rx="27.97" ry="27.08" transform="matrix(1, -0.02, 0.02, 1, -1.03, 1.02)"/><ellipse class="cls-2" cx="48.73" cy="49.99" rx="22.99" ry="22.26" transform="translate(-1.03 1.02) rotate(-1.19)"/><path class="cls-3" d="M58.69,53.7c-.85,5-6.74,8.07-10.84,6.89S36,34.75,36,34.75,59.55,48.75,58.69,53.7Z"/><path class="cls-4" d="M54.69,57.74a5,5,0,0,0,1,3.43c.95,1.4,1.54,2.37.95,3.35-.35.6-.39.93-1.19,1.14s-1-.2-1.12-.06.12,1.38.79,1.47,1.42-.89,1.53-.8c.28.23-.92,1.68-.92,1.7s1.15-.12,1.75-1.13c.26-.65.07-.93.35-1.15.5-.39,1.75.54,2.11.2s-.5-1.4-.16-1.69,1,.45,1.67.14A1.24,1.24,0,0,0,62,62.86a.86.86,0,0,0-.77-.55c-.62,0-1.16,1.06-1.14,1.07s1.65-1.89,1.43-2.11-1,.8-2,.74A3.61,3.61,0,0,1,57,60.54C55.65,59,54.8,57.65,54.69,57.74Z"/><path class="cls-5" d="M57.86,54.08a9.48,9.48,0,0,0-4.77,1.25,9.29,9.29,0,0,0-4.15,4.92"/></svg>