<svg width="58" height="60" viewBox="0 0 58 60" fill="none" xmlns="http://www.w3.org/2000/svg">
<g filter="url(#filter0_d)">
<path d="M4.77315 43.3009C24.7279 51.9203 44.5255 52.7341 48.9923 45.1184C53.459 37.5027 40.9035 24.3416 20.9487 15.7221C0.993893 7.10267 -18.8037 6.28895 -23.2704 13.9046C-27.7372 21.5203 -15.1816 34.6815 4.77315 43.3009Z" fill="#E7227C" stroke="#E7C930" stroke-width="3" stroke-miterlimit="10"/>
<path d="M13.2485 30.4381C23.2039 34.7327 32.7965 35.6225 34.6743 32.4254C36.5521 29.2284 30.0039 23.1552 20.0485 18.8606C10.0932 14.5659 0.500515 13.6762 -1.37726 16.8732C-3.25504 20.0703 3.29314 26.1435 13.2485 30.4381Z" fill="#E7C92F"/>
<path d="M3.77246 23.1298L-7.29657 28.6287L-10.7638 25.9957L4.10086 22.5682L3.77246 23.1298Z" fill="#E7C92F"/>
<path d="M12.4675 24.2985L1.74175 35.4624L5.45083 37.2846L13.308 24.0327L12.4675 24.2985Z" fill="#E7C92F"/>
<path d="M8.04338 22.8369L-0.581347 33.6146L-3.85325 30.5491L8.1414 22.1028L8.04338 22.8369Z" fill="#E7C92F"/>
<path d="M3.98542 20.3853L-12.4696 22.1065L-14.2558 16.8961L4.79335 19.8024L3.98542 20.3853Z" fill="#E7C92F"/>
<path d="M0.772702 18.2168L-7.56611 15.3862L-6.95471 12.2881L1.32636 18.0984L0.772702 18.2168Z" fill="#E7C92F"/>
<path d="M17.1883 27.424L12.092 40.0964L8.64044 38.372L17.016 26.7362L17.1883 27.424Z" fill="#E7C92F"/>
<path d="M20.2103 21.6959L20.086 42.3942L15.2213 41.3983L19.6803 20.9717L20.2103 21.6959Z" fill="#E7C92F"/>
<path d="M24.5462 29.1124L30.6685 42.8174L36.7212 41.7284L24.7388 28.209L24.5462 29.1124Z" fill="#E7C92F"/>
<path d="M29.853 31.9441L38.9835 36.8768L42.4301 34.1877L29.6345 31.4067L29.853 31.9441Z" fill="#E7C92F"/>
<path d="M32.1267 28.2749L35.6617 28.4194L36.5234 29.8866L31.9975 28.3916L32.1267 28.2749Z" fill="#E7C92F"/>
<path d="M1.55226 16.0788L-0.897104 14.5966L-0.826248 12.9858L1.70521 16.0082L1.55226 16.0788Z" fill="#E7C92F"/>
<path d="M21.8622 25.1378L21.8669 42.0297L27.2915 43.3808L22.3608 24.2681L21.8622 25.1378Z" fill="#E7C92F"/>
</g>
<defs>
<filter id="filter0_d" x="-29.7428" y="7.26318" width="85.2074" height="52.4966" filterUnits="userSpaceOnUse" color-interpolation-filters="sRGB">
<feFlood flood-opacity="0" result="BackgroundImageFix"/>
<feColorMatrix in="SourceAlpha" type="matrix" values="0 0 0 0 0 0 0 0 0 0 0 0 0 0 0 0 0 0 127 0"/>
<feOffset dy="4"/>
<feGaussianBlur stdDeviation="2"/>
<feColorMatrix type="matrix" values="0 0 0 0 0 0 0 0 0 0 0 0 0 0 0 0 0 0 0.25 0"/>
<feBlend mode="normal" in2="BackgroundImageFix" result="effect1_dropShadow"/>
<feBlend mode="normal" in="SourceGraphic" in2="effect1_dropShadow" result="shape"/>
</filter>
</defs>
</svg>
