<svg width="55" height="45" viewBox="0 0 55 45" fill="none" xmlns="http://www.w3.org/2000/svg">
<path d="M27.5982 42.7412C41.5099 42.7412 52.7875 33.621 52.7875 22.3706C52.7875 11.1202 41.5099 2 27.5982 2C13.6866 2 2.40894 11.1202 2.40894 22.3706C2.40894 33.621 13.6866 42.7412 27.5982 42.7412Z" fill="#EADF00" stroke="#E63120" stroke-width="3" stroke-miterlimit="10"/>
<path d="M14.0747 31.9073L14.0302 31.9072C13.9169 32.4096 13.5305 32.6604 12.8711 32.6597C12.6042 32.6594 12.3811 32.6307 12.2018 32.5735C12.0223 32.5149 11.8802 32.4111 11.7753 32.262C11.6716 32.1129 11.6109 31.9068 11.5933 31.6439C11.5855 31.5285 11.5879 31.3788 11.6005 31.1948C11.6303 30.8267 11.7056 30.5339 11.8262 30.3164C11.9478 30.0974 12.1136 29.9428 12.3234 29.8524C12.5342 29.7606 12.7944 29.7149 13.104 29.7152C13.3732 29.7155 13.5964 29.7464 13.7737 29.808C13.9509 29.868 14.0597 30.0142 14.1002 30.2465L14.1589 30.2466L14.2192 29.5017C14.2334 29.36 14.2378 29.249 14.2324 29.1687C14.2237 29.0387 14.1817 28.9422 14.1063 28.8793C14.0308 28.815 13.8994 28.7827 13.712 28.7825C13.5388 28.7823 13.4072 28.818 13.3172 28.8895C13.2282 28.9595 13.1744 29.0945 13.1558 29.2946L11.9016 29.2933C11.9305 28.9471 12.0011 28.6726 12.1131 28.4697C12.2251 28.2653 12.3636 28.1201 12.5286 28.0341C12.6947 27.9467 12.8714 27.8928 13.0586 27.8726C13.2469 27.8509 13.4893 27.8402 13.7858 27.8405C14.1819 27.8409 14.4939 27.869 14.7218 27.9247C14.9495 27.979 15.1265 28.0887 15.2526 28.2539C15.3787 28.4191 15.4527 28.6646 15.4746 28.9903C15.4856 29.1539 15.4811 29.3789 15.4612 29.6652L15.2281 32.6074L13.9757 32.6061L14.0747 31.9073ZM14.0928 31.09C14.0803 30.9045 14.0238 30.7861 13.9231 30.7349C13.8224 30.6837 13.6624 30.658 13.4429 30.6577C13.2639 30.6575 13.1256 30.691 13.0281 30.7581C12.9317 30.8237 12.8746 30.9544 12.8569 31.1501C12.8718 31.3721 12.9258 31.5131 13.0187 31.5731C13.1129 31.6331 13.2282 31.6632 13.3646 31.6633C13.5508 31.6635 13.6922 31.6498 13.7887 31.6221C13.8865 31.5945 13.9588 31.5405 14.0056 31.4602C14.0534 31.3785 14.0825 31.2551 14.0928 31.09ZM19.9145 27.9017L18.6047 32.611L16.6371 32.6089L15.9491 27.8975L17.262 27.8989L17.6691 31.578L17.7046 31.5781L18.6159 27.9004L19.9145 27.9017ZM22.0332 27.8492C22.4566 27.8497 22.7893 27.8858 23.0313 27.9576C23.2733 28.0294 23.4527 28.1574 23.5694 28.3416C23.6872 28.5243 23.7575 28.7859 23.7804 29.1262C23.7992 29.4067 23.7903 29.7864 23.7537 30.2655C23.7002 30.9359 23.61 31.4383 23.483 31.7726C23.3572 32.107 23.1559 32.3405 22.879 32.4731C22.602 32.6043 22.1919 32.6696 21.6487 32.669C21.236 32.6685 20.9071 32.6273 20.662 32.5452C20.4181 32.4632 20.2369 32.325 20.1183 32.1306C19.9997 31.9362 19.9288 31.6659 19.9056 31.3197C19.8878 31.0553 19.8956 30.7025 19.9288 30.2614C19.9686 29.759 20.0269 29.3552 20.1037 29.05C20.1804 28.7448 20.293 28.5047 20.4413 28.3295C20.5897 28.1544 20.7895 28.0305 21.0408 27.9577C21.2932 27.8849 21.624 27.8488 22.0332 27.8492ZM21.9598 29.0345C21.7522 29.0342 21.5996 29.0655 21.5018 29.1282C21.4052 29.1909 21.335 29.3033 21.2914 29.4654C21.2489 29.6275 21.2122 29.8933 21.1812 30.2628C21.1558 30.6089 21.1474 30.8448 21.1558 30.9704C21.1693 31.172 21.2199 31.3079 21.3077 31.3781C21.3954 31.4483 21.5484 31.4835 21.7666 31.4838C21.916 31.4839 22.0336 31.468 22.1192 31.4359C22.206 31.4039 22.2738 31.3456 22.3227 31.2609C22.3714 31.1748 22.4085 31.055 22.4337 30.9017C22.4589 30.7469 22.4814 30.5344 22.5013 30.2642C22.5313 29.9166 22.5413 29.6683 22.5313 29.5193C22.5229 29.3936 22.4991 29.2958 22.46 29.2256C22.422 29.154 22.3635 29.1043 22.2846 29.0764C22.2056 29.0486 22.0973 29.0346 21.9598 29.0345ZM25.6536 30.2675C25.6306 30.5786 25.6232 30.794 25.6312 30.9138C25.6442 31.1081 25.6931 31.2528 25.7777 31.3478C25.8623 31.4414 25.9988 31.4883 26.1874 31.4885C26.3713 31.4887 26.5134 31.4603 26.614 31.4035C26.7145 31.3466 26.7928 31.232 26.8488 31.0597C26.9049 30.8874 26.9465 30.6238 26.9737 30.2689C26.9977 29.9739 27.0044 29.7468 26.9938 29.5875C26.9794 29.3743 26.9276 29.2296 26.8383 29.1536C26.7502 29.0775 26.5976 29.0394 26.3806 29.0391C26.2003 29.0389 26.0632 29.0724 25.9693 29.1395C25.8764 29.2051 25.8073 29.3241 25.762 29.4964C25.7165 29.6672 25.6804 29.9243 25.6536 30.2675ZM25.5236 31.9084L25.3078 34.6557L24.0536 34.6544L24.5844 27.9067L25.8386 27.908L25.757 28.6529L25.8157 28.6529C25.9059 28.3536 26.0461 28.1456 26.2363 28.0289C26.4265 27.9123 26.6717 27.8541 26.9717 27.8544C27.3773 27.8549 27.6905 27.9531 27.9112 28.149C28.1318 28.3435 28.2565 28.6555 28.2853 29.085C28.2977 29.2705 28.2971 29.4385 28.2835 29.5889L28.1938 30.6646C28.1563 31.148 28.078 31.5365 27.959 31.8299C27.8398 32.1219 27.6692 32.3357 27.447 32.4714C27.226 32.607 26.9394 32.6746 26.5872 32.6742C26.3239 32.6739 26.1081 32.6211 25.9397 32.5158C25.7726 32.4104 25.6534 32.208 25.5823 31.9085L25.5236 31.9084ZM30.8571 27.8585C31.2805 27.859 31.6132 27.8951 31.8552 27.967C32.0972 28.0388 32.2765 28.1668 32.3933 28.351C32.5111 28.5337 32.5814 28.7952 32.6042 29.1356C32.6231 29.416 32.6142 29.7958 32.5775 30.2748C32.5241 30.9452 32.4339 31.4476 32.3069 31.782C32.1811 32.1163 31.9797 32.3498 31.7028 32.4824C31.4258 32.6136 31.0157 32.6789 30.4725 32.6783C30.0598 32.6779 29.7309 32.6366 29.4859 32.5546C29.242 32.4725 29.0607 32.3343 28.9421 32.1399C28.8236 31.9455 28.7526 31.6752 28.7294 31.329C28.7117 31.0646 28.7194 30.7119 28.7527 30.2708C28.7925 29.7684 28.8508 29.3646 28.9275 29.0594C29.0043 28.7542 29.1168 28.514 29.2652 28.3389C29.4135 28.1638 29.6133 28.0398 29.8646 27.967C30.1171 27.8943 30.4479 27.8581 30.8571 27.8585ZM30.7836 29.0438C30.5761 29.0436 30.4234 29.0748 30.3256 29.1375C30.229 29.2002 30.1589 29.3126 30.1152 29.4747C30.0727 29.6368 30.036 29.9026 30.0051 30.2721C29.9797 30.6183 29.9712 30.8542 29.9796 30.9798C29.9932 31.1814 30.0438 31.3173 30.1315 31.3875C30.2193 31.4577 30.3722 31.4929 30.5905 31.4931C30.7399 31.4933 30.8574 31.4773 30.943 31.4453C31.0298 31.4132 31.0976 31.3549 31.1465 31.2702C31.1953 31.1841 31.2323 31.0644 31.2576 30.911C31.2828 30.7562 31.3053 30.5437 31.3251 30.2735C31.3551 29.9259 31.3652 29.6776 31.3552 29.5286C31.3467 29.403 31.323 29.3051 31.2839 29.2349C31.2458 29.1633 31.1874 29.1136 31.1084 29.0858C31.0295 29.0579 30.9212 29.0439 30.7836 29.0438ZM34.8542 25.8975L34.3222 32.6276L33.0698 32.6263L33.6018 25.8961L34.8542 25.8975ZM36.6745 27.9195L36.3058 32.6297L35.0587 32.6284L35.4274 27.9182L36.6745 27.9195ZM36.8378 25.8996L36.7412 27.0848L35.4959 27.0835L35.5907 25.8982L36.8378 25.8996ZM39.4206 30.7488L40.6731 30.7501C40.6368 31.181 40.5723 31.5198 40.4798 31.7665C40.3871 32.0118 40.2588 32.2023 40.0948 32.338C39.9446 32.4678 39.758 32.5589 39.535 32.6112C39.3131 32.6621 39.0242 32.6874 38.6684 32.687C38.2794 32.6866 37.9676 32.6439 37.733 32.5589C37.4996 32.474 37.3253 32.3328 37.2101 32.1355C37.0948 31.9382 37.0256 31.6665 37.0024 31.3202C36.9863 31.0807 36.9944 30.7338 37.0268 30.2796C37.0615 29.8429 37.1143 29.4807 37.1851 29.193C37.257 28.9039 37.3647 28.6608 37.508 28.4637C37.6524 28.2652 37.8487 28.1165 38.0971 28.0174C38.3465 27.9169 38.6645 27.8668 39.0511 27.8672C39.4141 27.8676 39.712 27.8979 39.9449 27.958C40.1777 28.0167 40.3661 28.1381 40.5101 28.3223C40.6541 28.5065 40.7379 28.7739 40.7614 29.1245C40.7725 29.2895 40.7704 29.4787 40.755 29.6919L39.5026 29.6906C39.515 29.5928 39.5183 29.5 39.5124 29.4124C39.5055 29.3101 39.4809 29.2349 39.4385 29.1866C39.3661 29.0974 39.2054 29.0527 38.9564 29.0525C38.7986 29.0523 38.6778 29.0806 38.5938 29.1375C38.5099 29.1944 38.444 29.3083 38.3962 29.4791C38.3495 29.65 38.3111 29.9172 38.281 30.2809C38.2533 30.592 38.2456 30.8403 38.2581 31.0258C38.2714 31.2245 38.3139 31.3538 38.3855 31.4137C38.4582 31.4722 38.5841 31.5016 38.7632 31.5018C38.9494 31.502 39.0855 31.4802 39.1715 31.4365C39.2587 31.3928 39.3169 31.3234 39.3461 31.2285C39.3764 31.1321 39.4012 30.9722 39.4206 30.7488ZM42.3775 29.6937L43.6085 29.695C43.6174 29.527 43.6207 29.4247 43.6182 29.3882C43.6056 29.1998 43.5554 29.08 43.4678 29.0287C43.3812 28.9761 43.2365 28.9496 43.0337 28.9494C42.806 28.9492 42.6474 28.9972 42.5578 29.0935C42.4682 29.1898 42.4081 29.3899 42.3775 29.6937ZM43.5191 31.0664L44.7502 31.0677C44.7014 31.7191 44.4938 32.1681 44.1273 32.4145C43.8432 32.5997 43.3875 32.692 42.7601 32.6913C42.4672 32.691 42.2157 32.6645 42.0059 32.6117C41.7959 32.5574 41.6242 32.4732 41.4908 32.3592C41.3575 32.2451 41.2557 32.0982 41.1855 31.9184C41.1153 31.7387 41.0716 31.5196 41.0542 31.261C41.04 31.0492 41.0472 30.7235 41.0758 30.2838C41.114 29.8106 41.1722 29.4229 41.2503 29.1206C41.3297 28.8183 41.4439 28.576 41.5929 28.3936C41.743 28.2097 41.9417 28.077 42.1888 27.9954C42.437 27.9124 42.7556 27.8711 43.1446 27.8716C43.5324 27.872 43.8448 27.9147 44.0818 27.9996C44.3187 28.0831 44.4973 28.2265 44.6176 28.4296C44.7379 28.6313 44.8101 28.9126 44.8344 29.2734C44.8527 29.5466 44.8463 29.8847 44.8153 30.2878L44.7954 30.5485L42.3102 30.5459C42.291 30.7547 42.2866 30.9366 42.297 31.0914C42.3101 31.2872 42.3572 31.4231 42.4382 31.4991C42.5204 31.5751 42.6575 31.6133 42.8496 31.6135C43.0726 31.6137 43.2364 31.5795 43.3409 31.511C43.4454 31.4425 43.5048 31.2943 43.5191 31.0664Z" fill="#E63120"/>
<path d="M13.7702 25.0611L13.7257 25.061C13.6124 25.5634 13.226 25.8142 12.5666 25.8135C12.2997 25.8132 12.0766 25.7845 11.8973 25.7273C11.7178 25.6687 11.5756 25.5649 11.4708 25.4158C11.3671 25.2667 11.3064 25.0606 11.2888 24.7977C11.281 24.6823 11.2834 24.5326 11.296 24.3486C11.3258 23.9805 11.401 23.6877 11.5216 23.4702C11.6433 23.2512 11.809 23.0966 12.0188 23.0063C12.2297 22.9145 12.4899 22.8687 12.7994 22.869C13.0687 22.8693 13.2919 22.9002 13.4692 22.9618C13.6464 23.0219 13.7552 23.168 13.7957 23.4003L13.8544 23.4004L13.9147 22.6555C13.9289 22.5138 13.9333 22.4028 13.9279 22.3225C13.9192 22.1925 13.8771 22.096 13.8018 22.0332C13.7263 21.9688 13.5949 21.9365 13.4075 21.9363C13.2343 21.9361 13.1027 21.9718 13.0126 22.0433C12.9236 22.1133 12.8698 22.2483 12.8513 22.4484L11.5971 22.4471C11.626 22.101 11.6965 21.8264 11.8086 21.6235C11.9206 21.4191 12.0591 21.274 12.2241 21.1879C12.3902 21.1005 12.5668 21.0466 12.754 21.0264C12.9423 21.0047 13.1847 20.994 13.4812 20.9943C13.8773 20.9947 14.1893 21.0228 14.4172 21.0785C14.645 21.1328 14.822 21.2426 14.9481 21.4077C15.0742 21.5729 15.1482 21.8184 15.1701 22.1441C15.181 22.3078 15.1766 22.5327 15.1566 22.819L14.9236 25.7612L13.6712 25.7599L13.7702 25.0611ZM13.7883 24.2438C13.7758 24.0583 13.7192 23.94 13.6186 23.8887C13.5179 23.8375 13.3578 23.8118 13.1384 23.8115C12.9593 23.8113 12.821 23.8448 12.7236 23.9119C12.6272 23.9775 12.5701 24.1082 12.5524 24.3039C12.5673 24.5259 12.6212 24.6669 12.7142 24.7269C12.8084 24.7869 12.9236 24.817 13.06 24.8171C13.2462 24.8173 13.3876 24.8036 13.4842 24.7759C13.582 24.7483 13.6542 24.6943 13.701 24.614C13.7489 24.5323 13.778 24.4089 13.7883 24.2438ZM19.61 21.0555L18.3002 25.7648L16.3326 25.7627L15.6446 21.0513L16.9575 21.0527L17.3645 24.7318L17.4001 24.7319L18.3113 21.0542L19.61 21.0555ZM21.7287 21.003C22.1521 21.0035 22.4848 21.0396 22.7268 21.1114C22.9688 21.1833 23.1482 21.3113 23.2649 21.4954C23.3827 21.6781 23.453 21.9397 23.4759 22.28C23.4947 22.5605 23.4858 22.9403 23.4491 23.4193C23.3957 24.0897 23.3055 24.5921 23.1785 24.9264C23.0527 25.2608 22.8514 25.4943 22.5744 25.6269C22.2974 25.7581 21.8873 25.8234 21.3442 25.8228C20.9314 25.8224 20.6025 25.7811 20.3575 25.699C20.1136 25.617 19.9324 25.4788 19.8138 25.2844C19.6952 25.09 19.6243 24.8197 19.601 24.4735C19.5833 24.2091 19.591 23.8563 19.6243 23.4153C19.6641 22.9128 19.7224 22.509 19.7991 22.2038C19.8759 21.8986 19.9885 21.6585 20.1368 21.4833C20.2851 21.3082 20.485 21.1843 20.7362 21.1115C20.9887 21.0387 21.3195 21.0026 21.7287 21.003ZM21.6552 22.1883C21.4477 22.188 21.295 22.2193 21.1972 22.282C21.1007 22.3447 21.0305 22.4571 20.9868 22.6192C20.9444 22.7813 20.9076 23.0471 20.8767 23.4166C20.8513 23.7627 20.8428 23.9986 20.8513 24.1242C20.8648 24.3258 20.9154 24.4617 21.0031 24.5319C21.0909 24.6021 21.2438 24.6374 21.4621 24.6376C21.6115 24.6377 21.729 24.6218 21.8146 24.5898C21.9014 24.5577 21.9693 24.4994 22.0181 24.4147C22.0669 24.3286 22.1039 24.2088 22.1292 24.0555C22.1544 23.9007 22.1769 23.6882 22.1967 23.418C22.2268 23.0704 22.2368 22.8221 22.2268 22.6731C22.2183 22.5475 22.1946 22.4496 22.1555 22.3794C22.1175 22.3078 22.059 22.2581 21.98 22.2302C21.9011 22.2024 21.7928 22.1884 21.6552 22.1883ZM25.3491 23.4213C25.3261 23.7324 25.3186 23.9479 25.3267 24.0676C25.3397 24.2619 25.3886 24.4066 25.4732 24.5016C25.5578 24.5952 25.6943 24.6421 25.8829 24.6423C26.0667 24.6425 26.2089 24.6141 26.3095 24.5573C26.41 24.5004 26.4883 24.3858 26.5443 24.2135C26.6004 24.0412 26.642 23.7776 26.6691 23.4227C26.6932 23.1277 26.6999 22.9006 26.6892 22.7413C26.6749 22.5281 26.6231 22.3834 26.5338 22.3074C26.4457 22.2313 26.2931 22.1932 26.0761 22.1929C25.8958 22.1928 25.7587 22.2262 25.6648 22.2933C25.5719 22.3589 25.5028 22.4779 25.4575 22.6502C25.412 22.8211 25.3759 23.0781 25.3491 23.4213ZM25.2191 25.0622L25.0032 27.8095L23.749 27.8082L24.2799 21.0605L25.5341 21.0618L25.4524 21.8067L25.5111 21.8067C25.6013 21.5074 25.7416 21.2994 25.9318 21.1827C26.122 21.0661 26.3671 21.0079 26.6672 21.0082C27.0728 21.0087 27.386 21.1069 27.6066 21.3028C27.8272 21.4973 27.9519 21.8093 27.9808 22.2388C27.9932 22.4243 27.9926 22.5923 27.979 22.7427L27.8893 23.8184C27.8518 24.3018 27.7735 24.6903 27.6544 24.9837C27.5353 25.2758 27.3646 25.4896 27.1425 25.6252C26.9215 25.7608 26.6349 25.8284 26.2827 25.828C26.0194 25.8277 25.8036 25.7749 25.6352 25.6696C25.468 25.5642 25.3489 25.3618 25.2778 25.0623L25.2191 25.0622ZM30.5525 21.0124C30.9759 21.0128 31.3086 21.0489 31.5506 21.1208C31.7926 21.1926 31.972 21.3206 32.0887 21.5048C32.2065 21.6875 32.2769 21.949 32.2997 22.2894C32.3185 22.5698 32.3096 22.9496 32.273 23.4287C32.2196 24.099 32.1293 24.6014 32.0024 24.9358C31.8766 25.2701 31.6752 25.5036 31.3983 25.6362C31.1213 25.7674 30.7112 25.8327 30.168 25.8321C29.7553 25.8317 29.4264 25.7904 29.1813 25.7084C28.9374 25.6263 28.7562 25.4881 28.6376 25.2937C28.519 25.0993 28.4481 24.829 28.4249 24.4828C28.4071 24.2184 28.4149 23.8657 28.4481 23.4246C28.4879 22.9222 28.5462 22.5184 28.623 22.2132C28.6998 21.908 28.8123 21.6678 28.9607 21.4927C29.109 21.3176 29.3088 21.1936 29.5601 21.1209C29.8125 21.0481 30.1434 21.0119 30.5525 21.0124ZM30.4791 22.1976C30.2715 22.1974 30.1189 22.2286 30.0211 22.2913C29.9245 22.354 29.8544 22.4664 29.8107 22.6285C29.7682 22.7906 29.7315 23.0564 29.7006 23.4259C29.6752 23.7721 29.6667 24.008 29.6751 24.1336C29.6886 24.3352 29.7393 24.4711 29.827 24.5413C29.9147 24.6115 30.0677 24.6467 30.2859 24.6469C30.4354 24.6471 30.5529 24.6311 30.6385 24.5991C30.7253 24.5671 30.7931 24.5087 30.842 24.424C30.8908 24.3379 30.9278 24.2182 30.9531 24.0648C30.9783 23.91 31.0008 23.6975 31.0206 23.4273C31.0506 23.0797 31.0606 22.8314 31.0506 22.6824C31.0422 22.5568 31.0184 22.4589 30.9793 22.3888C30.9413 22.3171 30.8828 22.2674 30.8039 22.2396C30.7249 22.2117 30.6167 22.1978 30.4791 22.1976ZM34.5497 19.0513L34.0177 25.7814L32.7652 25.7801L33.2973 19.0499L34.5497 19.0513ZM36.37 21.0733L36.0012 25.7835L34.7542 25.7822L35.1229 21.072L36.37 21.0733ZM36.5333 19.0534L36.4367 20.2386L35.1914 20.2373L35.2862 19.0521L36.5333 19.0534ZM39.1161 23.9026L40.3685 23.9039C40.3322 24.3348 40.2678 24.6736 40.1753 24.9203C40.0826 25.1656 39.9543 25.3561 39.7902 25.4918C39.64 25.6216 39.4534 25.7127 39.2304 25.765C39.0085 25.8159 38.7197 25.8412 38.3639 25.8408C37.9749 25.8404 37.6631 25.7977 37.4285 25.7127C37.1951 25.6278 37.0208 25.4866 36.9055 25.2893C36.7903 25.092 36.7211 24.8203 36.6978 24.4741C36.6818 24.2345 36.6899 23.8876 36.7223 23.4334C36.757 22.9967 36.8098 22.6345 36.8806 22.3468C36.9525 22.0577 37.0601 21.8146 37.2034 21.6175C37.3479 21.419 37.5442 21.2703 37.7925 21.1712C38.042 21.0707 38.36 21.0206 38.7466 21.021C39.1095 21.0214 39.4074 21.0517 39.6404 21.1118C39.8732 21.1705 40.0616 21.2919 40.2056 21.4761C40.3496 21.6603 40.4334 21.9277 40.4569 22.2783C40.468 22.4434 40.4658 22.6325 40.4505 22.8457L39.1981 22.8444C39.2105 22.7466 39.2138 22.6538 39.2079 22.5662C39.201 22.4639 39.1764 22.3887 39.134 22.3404C39.0616 22.2512 38.9009 22.2065 38.6518 22.2063C38.4941 22.2061 38.3733 22.2344 38.2893 22.2913C38.2054 22.3482 38.1395 22.4621 38.0917 22.6329C38.045 22.8038 38.0066 23.071 37.9765 23.4347C37.9487 23.7458 37.9411 23.9941 37.9535 24.1796C37.9669 24.3783 38.0093 24.5076 38.081 24.5675C38.1537 24.626 38.2796 24.6554 38.4587 24.6556C38.6449 24.6558 38.781 24.634 38.867 24.5903C38.9542 24.5466 39.0124 24.4772 39.0416 24.3823C39.0719 24.286 39.0967 24.126 39.1161 23.9026ZM42.0729 22.8475L43.304 22.8488C43.3129 22.6808 43.3161 22.5786 43.3137 22.542C43.301 22.3536 43.2509 22.2338 43.1632 22.1826C43.0767 22.1299 42.932 22.1034 42.7292 22.1032C42.5015 22.103 42.3428 22.151 42.2533 22.2473C42.1637 22.3436 42.1036 22.5437 42.0729 22.8475ZM43.2146 24.2202L44.4457 24.2215C44.3969 24.8729 44.1893 25.3219 43.8227 25.5683C43.5387 25.7535 43.083 25.8458 42.4556 25.8451C42.1626 25.8448 41.9112 25.8183 41.7013 25.7655C41.4913 25.7112 41.3197 25.627 41.1863 25.513C41.0529 25.3989 40.9512 25.252 40.881 25.0722C40.8108 24.8925 40.7671 24.6734 40.7497 24.4148C40.7355 24.203 40.7427 23.8773 40.7713 23.4377C40.8095 22.9644 40.8677 22.5767 40.9458 22.2744C41.0251 21.9721 41.1393 21.7298 41.2884 21.5474C41.4385 21.3635 41.6371 21.2308 41.8843 21.1492C42.1325 21.0663 42.4511 21.025 42.8401 21.0254C43.2279 21.0258 43.5403 21.0685 43.7773 21.1534C44.0141 21.2369 44.1927 21.3803 44.3131 21.5834C44.4334 21.7851 44.5056 22.0664 44.5298 22.4272C44.5482 22.7004 44.5418 23.0385 44.5107 23.4416L44.4909 23.7023L42.0056 23.6997C41.9864 23.9085 41.982 24.0904 41.9924 24.2452C42.0056 24.441 42.0526 24.5769 42.1336 24.6529C42.2158 24.7289 42.353 24.7671 42.5451 24.7673C42.7681 24.7675 42.9318 24.7334 43.0363 24.6648C43.1408 24.5963 43.2003 24.4481 43.2146 24.2202Z" fill="#E63120"/>
<path d="M14.5295 18.626L14.485 18.626C14.3717 19.1283 13.9853 19.3791 13.3259 19.3784C13.0591 19.3782 12.836 19.3494 12.6566 19.2923C12.4772 19.2337 12.335 19.1298 12.2301 18.9807C12.1264 18.8316 12.0657 18.6256 12.0481 18.3627C12.0404 18.2473 12.0428 18.0975 12.0553 17.9135C12.0852 17.5455 12.1604 17.2527 12.281 17.0352C12.4027 16.8162 12.5684 16.6615 12.7782 16.5712C12.989 16.4794 13.2492 16.4337 13.5588 16.434C13.828 16.4343 14.0513 16.4652 14.2285 16.5267C14.4057 16.5868 14.5145 16.733 14.555 16.9653L14.6137 16.9653L14.674 16.2205C14.6883 16.0788 14.6927 15.9678 14.6873 15.8874C14.6785 15.7574 14.6365 15.661 14.5611 15.5981C14.4856 15.5337 14.3542 15.5015 14.1668 15.5013C13.9937 15.5011 13.8621 15.5367 13.772 15.6082C13.683 15.6782 13.6292 15.8133 13.6106 16.0134L12.3564 16.012C12.3854 15.6659 12.4559 15.3914 12.568 15.1885C12.68 14.9841 12.8185 14.8389 12.9835 14.7529C13.1495 14.6654 13.3262 14.6116 13.5134 14.5913C13.7017 14.5696 13.9441 14.5589 14.2406 14.5592C14.6367 14.5596 14.9487 14.5877 15.1766 14.6435C15.4044 14.6978 15.5813 14.8075 15.7074 14.9727C15.8336 15.1379 15.9075 15.3833 15.9294 15.7091C15.9404 15.8727 15.9359 16.0976 15.916 16.3839L15.683 19.3262L14.4306 19.3248L14.5295 18.626ZM14.5476 17.8088C14.5352 17.6233 14.4786 17.5049 14.3779 17.4537C14.2772 17.4024 14.1172 17.3767 13.8978 17.3765C13.7187 17.3763 13.5804 17.4097 13.4829 17.4768C13.3865 17.5424 13.3295 17.6731 13.3118 17.8688C13.3267 18.0909 13.3806 18.2319 13.4736 18.2919C13.5677 18.3518 13.683 18.3819 13.8194 18.3821C14.0056 18.3823 14.147 18.3685 14.2436 18.3409C14.3413 18.3132 14.4136 18.2593 14.4604 18.179C14.5083 18.0972 14.5373 17.9738 14.5476 17.8088ZM20.3694 14.6205L19.0595 19.3297L17.0919 19.3276L16.404 14.6163L17.7169 14.6177L18.1239 18.2968L18.1595 18.2968L19.0707 14.6191L20.3694 14.6205ZM22.488 14.568C22.9114 14.5684 23.2441 14.6045 23.4861 14.6764C23.7281 14.7482 23.9075 14.8762 24.0242 15.0604C24.142 15.2431 24.2124 15.5046 24.2352 15.845C24.254 16.1254 24.2451 16.5052 24.2085 16.9842C24.1551 17.6546 24.0648 18.157 23.9379 18.4914C23.8121 18.8257 23.6107 19.0592 23.3338 19.1918C23.0568 19.323 22.6467 19.3883 22.1035 19.3877C21.6908 19.3873 21.3619 19.346 21.1168 19.264C20.8729 19.1819 20.6917 19.0437 20.5731 18.8493C20.4545 18.6549 20.3836 18.3846 20.3604 18.0384C20.3426 17.774 20.3504 17.4213 20.3836 16.9802C20.4234 16.4778 20.4817 16.074 20.5585 15.7688C20.6353 15.4636 20.7478 15.2234 20.8962 15.0483C21.0445 14.8732 21.2443 14.7492 21.4956 14.6765C21.748 14.6037 22.0789 14.5675 22.488 14.568ZM22.4146 15.7532C22.207 15.753 22.0544 15.7842 21.9566 15.8469C21.86 15.9096 21.7899 16.022 21.7462 16.1841C21.7037 16.3462 21.667 16.612 21.6361 16.9815C21.6107 17.3277 21.6022 17.5636 21.6106 17.6892C21.6241 17.8908 21.6748 18.0267 21.7625 18.0969C21.8502 18.1671 22.0032 18.2023 22.2214 18.2025C22.3709 18.2027 22.4884 18.1867 22.574 18.1547C22.6608 18.1227 22.7286 18.0643 22.7775 17.9796C22.8263 17.8935 22.8633 17.7738 22.8886 17.6204C22.9138 17.4656 22.9363 17.2531 22.9561 16.9829C22.9861 16.6353 22.9961 16.387 22.9861 16.238C22.9777 16.1124 22.9539 16.0145 22.9148 15.9443C22.8768 15.8727 22.8183 15.823 22.7394 15.7952C22.6604 15.7673 22.5522 15.7533 22.4146 15.7532ZM26.1085 16.9863C26.0855 17.2974 26.078 17.5128 26.086 17.6326C26.0991 17.8269 26.1479 17.9715 26.2326 18.0666C26.3171 18.1601 26.4537 18.207 26.6422 18.2072C26.8261 18.2074 26.9683 18.1791 27.0688 18.1222C27.1693 18.0654 27.2476 17.9508 27.3037 17.7785C27.3597 17.6062 27.4013 17.3426 27.4285 16.9877C27.4526 16.6926 27.4593 16.4655 27.4486 16.3063C27.4343 16.093 27.3825 15.9484 27.2931 15.8723C27.205 15.7963 27.0525 15.7581 26.8354 15.7579C26.6551 15.7577 26.518 15.7911 26.4241 15.8582C26.3313 15.9239 26.2622 16.0428 26.2168 16.2151C26.1714 16.386 26.1352 16.643 26.1085 16.9863ZM25.9784 18.6272L25.7626 21.3744L24.5084 21.3731L25.0392 14.6254L26.2934 14.6268L26.2118 15.3716L26.2705 15.3717C26.3607 15.0723 26.5009 14.8643 26.6911 14.7477C26.8813 14.631 27.1265 14.5729 27.4265 14.5732C27.8322 14.5736 28.1453 14.6718 28.366 14.8678C28.5866 15.0623 28.7113 15.3743 28.7401 15.8037C28.7526 15.9892 28.752 16.1572 28.7384 16.3076L28.6487 17.3833C28.6111 17.8668 28.5329 18.2552 28.4138 18.5487C28.2946 18.8407 28.124 19.0545 27.9018 19.1901C27.6809 19.3257 27.3943 19.3933 27.042 19.393C26.7787 19.3927 26.5629 19.3399 26.3945 19.2345C26.2274 19.1292 26.1082 18.9267 26.0372 18.6272L25.9784 18.6272ZM31.3119 14.5773C31.7353 14.5777 32.068 14.6139 32.31 14.6857C32.552 14.7575 32.7314 14.8855 32.8481 15.0697C32.9659 15.2524 33.0362 15.5139 33.0591 15.8543C33.0779 16.1348 33.069 16.5145 33.0323 16.9936C32.9789 17.664 32.8887 18.1664 32.7617 18.5007C32.6359 18.8351 32.4346 19.0686 32.1576 19.2012C31.8806 19.3324 31.4705 19.3976 30.9274 19.3971C30.5146 19.3966 30.1857 19.3554 29.9407 19.2733C29.6968 19.1913 29.5156 19.0531 29.397 18.8587C29.2784 18.6643 29.2075 18.394 29.1842 18.0478C29.1665 17.7834 29.1742 17.4306 29.2075 16.9895C29.2473 16.4871 29.3056 16.0833 29.3823 15.7781C29.4591 15.4729 29.5717 15.2328 29.72 15.0576C29.8684 14.8825 30.0682 14.7586 30.3194 14.6858C30.5719 14.613 30.9027 14.5769 31.3119 14.5773ZM31.2384 15.7625C31.0309 15.7623 30.8782 15.7936 30.7804 15.8563C30.6839 15.919 30.6137 16.0314 30.57 16.1935C30.5276 16.3556 30.4908 16.6214 30.4599 16.9909C30.4345 17.337 30.426 17.5729 30.4345 17.6985C30.448 17.9001 30.4986 18.036 30.5863 18.1062C30.6741 18.1764 30.827 18.2116 31.0453 18.2119C31.1947 18.212 31.3122 18.1961 31.3978 18.164C31.4846 18.132 31.5525 18.0736 31.6013 17.989C31.6501 17.9029 31.6871 17.7831 31.7124 17.6298C31.7376 17.475 31.7601 17.2625 31.7799 16.9923C31.81 16.6447 31.82 16.3964 31.81 16.2474C31.8016 16.1217 31.7778 16.0238 31.7387 15.9537C31.7007 15.8821 31.6422 15.8324 31.5632 15.8045C31.4843 15.7767 31.376 15.7627 31.2384 15.7625ZM35.309 12.6162L34.777 19.3464L33.5246 19.345L34.0566 12.6149L35.309 12.6162ZM37.1293 14.6382L36.7606 19.3485L35.5135 19.3472L35.8823 14.6369L37.1293 14.6382ZM37.2926 12.6183L37.1961 13.8035L35.9508 13.8022L36.0455 12.617L37.2926 12.6183ZM39.8755 17.4675L41.1279 17.4688C41.0916 17.8997 41.0271 18.2385 40.9346 18.4853C40.842 18.7306 40.7136 18.921 40.5496 19.0567C40.3994 19.1865 40.2128 19.2776 39.9898 19.33C39.7679 19.3809 39.479 19.4061 39.1232 19.4058C38.7342 19.4053 38.4224 19.3627 38.1878 19.2777C37.9544 19.1927 37.7801 19.0516 37.6649 18.8543C37.5497 18.657 37.4804 18.3852 37.4572 18.039C37.4411 17.7994 37.4493 17.4525 37.4816 16.9983C37.5164 16.5616 37.5691 16.1994 37.64 15.9117C37.7119 15.6226 37.8195 15.3795 37.9628 15.1825C38.1072 14.984 38.3036 14.8352 38.5519 14.7361C38.8013 14.6356 39.1193 14.5856 39.506 14.586C39.8689 14.5864 40.1668 14.6166 40.3997 14.6768C40.6325 14.7354 40.8209 14.8569 40.9649 15.0411C41.1089 15.2253 41.1927 15.4926 41.2162 15.8432C41.2273 16.0083 41.2252 16.1974 41.2098 16.4107L39.9574 16.4094C39.9698 16.3115 39.9731 16.2188 39.9672 16.1311C39.9604 16.0289 39.9357 15.9536 39.8934 15.9054C39.821 15.8162 39.6602 15.7715 39.4112 15.7712C39.2534 15.771 39.1326 15.7994 39.0487 15.8563C38.9647 15.9131 38.8988 16.027 38.851 16.1979C38.8044 16.3687 38.766 16.636 38.7358 16.9996C38.7081 17.3107 38.7004 17.559 38.7129 17.7445C38.7262 17.9432 38.7687 18.0725 38.8403 18.1325C38.913 18.191 39.0389 18.2203 39.218 18.2205C39.4042 18.2207 39.5403 18.199 39.6263 18.1552C39.7135 18.1115 39.7717 18.0422 39.8009 17.9473C39.8312 17.8509 39.8561 17.691 39.8755 17.4675ZM42.8323 16.4124L44.0634 16.4137C44.0723 16.2457 44.0755 16.1435 44.073 16.107C44.0604 15.9185 44.0102 15.7987 43.9226 15.7475C43.836 15.6948 43.6914 15.6684 43.4886 15.6682C43.2609 15.6679 43.1022 15.716 43.0126 15.8123C42.923 15.9086 42.8629 16.1086 42.8323 16.4124ZM43.974 17.7852L45.205 17.7865C45.1563 18.4379 44.9486 18.8868 44.5821 19.1333C44.298 19.3185 43.8423 19.4107 43.2149 19.4101C42.922 19.4098 42.6706 19.3832 42.4607 19.3304C42.2507 19.2761 42.079 19.192 41.9456 19.0779C41.8123 18.9638 41.7105 18.8169 41.6403 18.6372C41.5702 18.4575 41.5264 18.2383 41.5091 17.9798C41.4948 17.7679 41.502 17.4422 41.5306 17.0026C41.5688 16.5294 41.627 16.1416 41.7052 15.8394C41.7845 15.5371 41.8987 15.2947 42.0477 15.1123C42.1979 14.9284 42.3965 14.7957 42.6436 14.7142C42.8918 14.6312 43.2104 14.5899 43.5995 14.5903C43.9873 14.5907 44.2997 14.6334 44.5366 14.7184C44.7735 14.8019 44.9521 14.9452 45.0725 15.1484C45.1927 15.3501 45.265 15.6313 45.2892 15.9921C45.3075 16.2653 45.3012 16.6034 45.2701 17.0066L45.2502 17.2673L42.765 17.2646C42.7458 17.4735 42.7414 17.6553 42.7518 17.8102C42.7649 18.0059 42.812 18.1418 42.893 18.2178C42.9752 18.2939 43.1123 18.332 43.3045 18.3322C43.5274 18.3324 43.6912 18.2983 43.7957 18.2298C43.9002 18.1612 43.9596 18.013 43.974 17.7852Z" fill="#E63120"/>
</svg>
