<svg width="81" height="66" viewBox="0 0 81 66" fill="none" xmlns="http://www.w3.org/2000/svg">
<path d="M52.5977 54.2621C67.6438 47.8846 74.4848 33.3098 67.8775 21.7082C61.2702 10.1067 43.7166 5.87186 28.6705 12.2494C13.6244 18.6269 6.78337 33.2017 13.3907 44.8033C19.998 56.4048 37.5516 60.6396 52.5977 54.2621Z" fill="#B3CF5C" stroke="#71A845" stroke-width="3" stroke-miterlimit="10"/>
<path d="M48.6863 27.3971C47.0248 25.7079 38.8578 22.9334 35.5122 24.3515C32.4014 25.67 29.3821 32.8041 30.1488 35.0972C30.5092 36.2258 31.1771 37.256 32.1068 38.1167C33.0364 38.9775 34.2055 39.6483 35.5335 40.083C36.8615 40.5177 38.3169 40.7059 39.7992 40.6346C41.2816 40.5633 42.7557 40.2343 44.1199 39.6702C49.6254 37.3366 52.5902 31.3605 48.6863 27.3971Z" fill="#603C24"/>
</svg>
