<svg width="78" height="65" viewBox="0 0 78 65" fill="none" xmlns="http://www.w3.org/2000/svg">
<path d="M57.0549 13.9299L52.5176 24.7494L65.8095 24.6568L55.2361 31.9076L66.1836 37.9598L52.9245 39.3391L58.0456 49.6224L46.3162 44.6918L43.9899 55.9376L37.5088 46.2656L28.473 54.9017L29.3078 43.5599L16.4332 46.846L24.3078 37.4317L11.6768 34.3282L24.093 29.8264L15.7261 21.321L28.7431 23.1662L27.2909 11.9464L36.7754 19.5559L42.6957 9.19649L45.6438 20.1456L57.0549 13.9299Z" fill="#252C5A" stroke="#E12716" stroke-miterlimit="10"/>
<path d="M28.2408 35.1169C30.7358 36.8169 34.0999 36.7377 35.7548 34.9402C37.4098 33.1426 36.7288 30.3073 34.2338 28.6073C31.7388 26.9074 28.3746 26.9865 26.7197 28.7841C25.0648 30.5817 25.7458 33.417 28.2408 35.1169Z" fill="#E73923"/>
<path d="M42.3581 42.8713C42.0354 43.2711 41.6219 43.6126 41.1419 43.8758C40.6619 44.139 40.1251 44.3185 39.5632 44.4037C37.1918 44.6944 35.0845 43.2609 34.8003 43.0747C32.458 41.4289 31.4068 38.5448 32.4587 37.5863C33.1584 36.9866 34.0914 37.6085 35.3891 36.9238C36.6868 36.2391 36.484 35.1838 37.5386 35.0692C38.5931 34.9547 39.8985 35.8988 40.8482 36.6368C42.1386 37.4471 43.0579 38.6104 43.4517 39.9313C43.5273 40.4579 43.4688 40.9927 43.2802 41.4998C43.0915 42.0069 42.7772 42.4745 42.3581 42.8713Z" fill="#E73923"/>
<path d="M34.5321 29.7786C39.1697 29.2254 43.8491 28.9796 48.5276 29.0436C47.1701 32.4747 44.9417 35.616 41.9996 38.2459" stroke="#71A845" stroke-miterlimit="10"/>
<path d="M42.6528 21.6673C42.6528 21.6673 46.3441 22.1371 47.9016 23.7316C49.4591 25.3261 48.6911 28.3782 48.6911 28.3782C48.6911 28.3782 44.8192 27.646 43.0346 25.8041C42.5328 25.211 42.2322 24.5126 42.1649 23.7838C42.0977 23.055 42.2663 22.3234 42.6528 21.6673Z" fill="#71A845"/>
</svg>
