<svg width="100" height="77" viewBox="0 0 100 77" fill="none" xmlns="http://www.w3.org/2000/svg">
<g filter="url(#filter0_d)">
<path d="M63.6005 53.0803C84.0384 40.0783 94.7086 22.9701 87.4332 14.868C80.1578 6.76589 57.6918 10.738 37.254 23.74C16.8162 36.742 6.14589 53.8503 13.4213 61.9524C20.6967 70.0544 43.1627 66.0823 63.6005 53.0803Z" fill="#E7227C" stroke="#E7C930" stroke-width="3" stroke-miterlimit="10"/>
<path d="M51.8429 38.7805C62.0488 32.2885 67.8408 24.2625 64.7797 20.854C61.7186 17.4454 50.9636 19.9451 40.7577 26.4371C30.5517 32.9291 24.7597 40.9551 27.8208 44.3636C30.8819 47.7721 41.637 45.2725 51.8429 38.7805Z" fill="#E7C92F"/>
<path d="M37.7576 42.9495L39.1536 55.6685L34.2347 57.3043L37.2261 42.3573L37.7576 42.9495Z" fill="#E7C92F"/>
<path d="M43.7205 36.0153L52.2393 51.2594L56.2321 49.0235L43.7966 35.146L43.7205 36.0153Z" fill="#E7C92F"/>
<path d="M39.6134 39.1038L48.6542 52.3905L43.3365 53.5999L38.7628 38.6253L39.6134 39.1038Z" fill="#E7C92F"/>
<path d="M34.4071 41.3215L28.5198 56.8272L21.1988 55.582L34.0792 40.2898L34.4071 41.3215Z" fill="#E7C92F"/>
<path d="M30.2125 43.1395L22.6105 48.9961L19.0484 46.7627L30.3354 42.5834L30.2125 43.1395Z" fill="#E7C92F"/>
<path d="M50.0494 33.4997L63.0935 44.6787L59.3429 46.7438L49.1275 33.2814L50.0494 33.4997Z" fill="#E7C92F"/>
<path d="M44.6149 27.7782L69.8834 38.9833L66.3256 42.6993L43.4739 27.853L44.6149 27.7782Z" fill="#E7C92F"/>
<path d="M56.0103 27.9202L75.9027 29.9234L77.5025 23.9835L54.989 27.2612L56.0103 27.9202Z" fill="#E7C92F"/>
<path d="M62.1456 24.9171L72.7539 19.5051L71.0869 14.9785L61.369 24.8177L62.1456 24.9171Z" fill="#E7C92F"/>
<path d="M58.6803 21.0113L60.5877 17.9525L62.8373 17.9885L58.7627 21.1897L58.6803 21.0113Z" fill="#E7C92F"/>
<path d="M27.9801 41.3629L24.9521 42.7276L22.9929 41.791L27.9672 41.1891L27.9801 41.3629Z" fill="#E7C92F"/>
<path d="M49.75 28.1466L70.4783 37.2279L74.7583 33.1885L48.9238 27.2407L49.75 28.1466Z" fill="#E7C92F"/>
</g>
<defs>
<filter id="filter0_d" x="5.5199" y="9.29395" width="89.8148" height="66.2323" filterUnits="userSpaceOnUse" color-interpolation-filters="sRGB">
<feFlood flood-opacity="0" result="BackgroundImageFix"/>
<feColorMatrix in="SourceAlpha" type="matrix" values="0 0 0 0 0 0 0 0 0 0 0 0 0 0 0 0 0 0 127 0"/>
<feOffset dy="4"/>
<feGaussianBlur stdDeviation="2"/>
<feColorMatrix type="matrix" values="0 0 0 0 0 0 0 0 0 0 0 0 0 0 0 0 0 0 0.25 0"/>
<feBlend mode="normal" in2="BackgroundImageFix" result="effect1_dropShadow"/>
<feBlend mode="normal" in="SourceGraphic" in2="effect1_dropShadow" result="shape"/>
</filter>
</defs>
</svg>
